<?xml version="1.0" encoding="UTF-8"?>
<svg width="256px" height="135px" viewBox="0 0 256 135" version="1.1" xmlns="http://www.w3.org/2000/svg" xmlns:xlink="http://www.w3.org/1999/xlink">
    <!-- Generator: Sketch 40.3 (33839) - http://www.bohemiancoding.com/sketch -->
    <title>Group 3</title>
    <desc>Created with Sketch.</desc>
    <defs></defs>
    <g id="Page-1" stroke="none" stroke-width="1" fill="none" fill-rule="evenodd">
        <g id="Group-3" transform="translate(0.000000, -7.000000)">
            <g id="rock" transform="translate(0.000000, 15.000000)">
                <path d="M73.3547477,9.92257895 C69.8379439,9.92257895 66.9863364,12.7622895 66.9863364,16.2644211 L66.9863364,25.926 L66.1770654,25.926 L66.1770654,13.8055263 C66.1770654,9.12889474 62.3698131,5.33828947 57.6735888,5.33828947 C52.9781308,5.33828947 49.1716449,9.12889474 49.1716449,13.8055263 L49.1716449,25.926 L48.038972,25.926 L48.038972,10.7437368 C48.038972,6.06710526 44.232486,2.2765 39.5362617,2.2765 C34.8408037,2.2765 31.0335514,6.06710526 31.0335514,10.7437368 L31.0335514,25.926 L29.9016449,25.926 L29.9016449,12.5776053 C29.9016449,7.90173684 26.0943925,4.11113158 21.3989346,4.11113158 C16.7027103,4.11113158 12.8962243,7.90173684 12.8962243,12.5776053 L12.8962243,27.9781316 C9.63231776,27.9781316 6.75388785,30.1081053 5.81127103,33.2195 L3.11753271,42.1194474 C1.42695327,47.7027105 2.48682243,53.7522632 5.97450467,58.4365263 L16.3118692,72.8144211 C16.6651589,73.3562632 17.0422056,73.8805526 17.442243,74.3865263 L17.5104486,74.4811579 C17.5188785,74.4895526 17.5280748,74.4979474 17.5365047,74.5063421 C21.4303551,79.3607895 27.4201869,82.4737105 34.1434206,82.4737105 L58.4759626,82.4737105 C70.2103925,82.4737105 79.7231589,73.0006316 79.7231589,61.3151579 L79.7231589,16.2644211 C79.7231589,12.7622895 76.8723178,9.92257895 73.3547477,9.92257895" id="Fill-35" fill="#EBC3B7"></path>
                <path d="M21.3989346,4.11113158 L21.3989346,4.11113158 C16.7027103,4.11113158 12.8962243,7.90173684 12.8962243,12.5776053 L12.8962243,18.9888947 C12.8962243,14.3130263 16.7027103,10.5224211 21.3989346,10.5224211 C26.0943925,10.5224211 29.9016449,14.3130263 29.9016449,18.9888947 L29.9016449,12.5776053 C29.9016449,7.90173684 26.0943925,4.11113158 21.3989346,4.11113158" id="Fill-36" fill="#F2DFD6"></path>
                <path d="M39.5362617,2.2765 C34.8408037,2.2765 31.0335514,6.06710526 31.0335514,10.7437368 L31.0335514,17.1550263 C31.0335514,12.4783947 34.8408037,8.68778947 39.5362617,8.68778947 C44.232486,8.68778947 48.038972,12.4783947 48.038972,17.1550263 L48.038972,10.7437368 C48.038972,6.06710526 44.232486,2.2765 39.5362617,2.2765" id="Fill-37" fill="#F2DFD6"></path>
                <path d="M57.6735888,5.33828947 C52.9781308,5.33828947 49.1716449,9.12889474 49.1716449,13.8055263 L49.1716449,20.2168158 C49.1716449,15.5401842 52.9781308,11.7495789 57.6735888,11.7495789 C62.3698131,11.7495789 66.1770654,15.5401842 66.1770654,20.2168158 L66.1770654,13.8055263 C66.1770654,9.12889474 62.3698131,5.33828947 57.6735888,5.33828947" id="Fill-38" fill="#F2DFD6"></path>
                <path d="M27.1228411,50.9301053 C26.4538131,51.1063947 25.840729,51.2910789 25.2912523,51.4879737 C25.0031028,51.5955789 24.7149533,51.7031842 24.4321682,51.8283421 L24.4321682,58.2388684 C30.5193271,55.5433947 37.9859252,56.9262368 42.650729,62.3973158 C44.3558692,64.3983158 45.4502243,66.7442632 45.9636822,69.1917105 C46.9216262,64.6326053 45.8295701,59.7148158 42.650729,55.9860263 C38.6541869,51.2987105 32.6030467,49.6220526 27.1228411,50.9301053" id="Fill-39" fill="#F2DFD6"></path>
                <path d="M3.11753271,48.5307368 L5.81127103,39.6307895 C6.75388785,36.5186316 9.63231776,34.3894211 12.8962243,34.3894211 L43.2944673,34.3894211 C45.9728785,34.3894211 48.2711776,36.0050263 49.2636075,38.3097632 C49.6031028,37.0780263 49.7877944,35.7829474 49.7877944,34.4436053 C49.7877944,30.8727895 46.880243,27.9781316 43.2944673,27.9781316 L12.8962243,27.9781316 C9.63231776,27.9781316 6.75388785,30.1081053 5.81127103,33.2195 L3.11753271,42.1194474 C2.26917757,44.9217632 2.11437383,47.8416053 2.61097196,50.6485 C2.73742056,49.9372368 2.90601869,49.2305526 3.11753271,48.5307368" id="Fill-40" fill="#F2DFD6"></path>
                <path d="M42.6047477,82.4737105 C45.8111776,78.7403421 46.9246916,73.7943158 45.9598505,69.2085 C45.4318318,71.7086053 44.2960935,74.1011053 42.5288785,76.1257632 C36.5444112,82.9835 23.8497383,80.794 17.5104486,74.4811579 L16.117215,72.5435 C18.0522617,75.6266579 20.7666916,78.1717895 23.9800187,79.9209474 L23.9800187,113.918868 L68.6401308,113.918868 L68.6401308,79.8988158 C65.6206916,81.5403684 62.1575327,82.4737105 58.4759626,82.4737105 L42.6047477,82.4737105" id="Fill-41" fill="#E0998E"></path>
                <path d="M57.2628224,41.3799474 C62.145271,41.6088947 66.1770654,37.7343421 66.1770654,32.9226316 L66.1770654,26.5113421 C66.1770654,31.3230526 62.145271,35.1976053 57.2628224,34.9686579 C52.6899813,34.7542105 49.1716449,30.8308158 49.1716449,26.2717105 L49.1716449,32.683 C49.1716449,37.2421053 52.6899813,41.1655 57.2628224,41.3799474" id="Fill-42" fill="#E0998E"></path>
                <path d="M24.4321682,51.8283421 C29.824243,49.4396579 36.2953458,50.2592895 40.9463551,54.2796053 C46.1468411,52.0405 49.7877944,46.8876579 49.7877944,40.8869474 C49.7877944,39.9780263 49.5977383,39.1141316 49.2574766,38.3296053 C47.549271,44.4982105 41.878243,49.0298421 35.1404486,49.0298421 L14.2480748,49.0298421 L16.2061121,51.8283421 L24.4321682,51.8283421" id="Fill-43" fill="#E0998E"></path>
                <path d="M72.9309533,34.9640789 C69.546729,34.7465789 66.9863364,31.7969737 66.9863364,28.4192368 L66.9863364,34.8305263 C66.9863364,38.2082632 69.546729,41.1578684 72.9309533,41.3753684 C76.6401121,41.615 79.7231589,38.6898158 79.7231589,35.0480263 L79.7231589,28.6367368 C79.7231589,32.2785263 76.6401121,35.2037105 72.9309533,34.9640789" id="Fill-44" fill="#E0998E"></path>
                <path d="M73.3547477,9.92257895 L73.3547477,9.92257895 C69.8379439,9.92257895 66.9863364,12.7622895 66.9863364,16.2644211 L66.9863364,22.6757105 C66.9863364,19.1735789 69.8379439,16.3338684 73.3547477,16.3338684 C76.8723178,16.3338684 79.7231589,19.1735789 79.7231589,22.6757105 L79.7231589,16.2644211 C79.7231589,12.7622895 76.8723178,9.92257895 73.3547477,9.92257895" id="Fill-45" fill="#F2DFD6"></path>
                <path d="M67.8691776,78.4923158 C67.3526542,78.7731579 67.030785,79.3127105 67.030785,79.8988158 L67.030785,112.316237 L25.5893645,112.316237 L25.5893645,79.8988158 C25.5893645,79.3127105 25.2674953,78.7731579 24.750972,78.4923158 C22.4488411,77.2407368 20.4448224,75.5633158 18.7948598,73.5058421 C18.7810654,73.4898158 18.7680374,73.4737895 18.754243,73.4577632 L18.7511776,73.4539474 C18.7366168,73.4333421 18.7220561,73.4135 18.706729,73.3936579 C18.3381121,72.9281316 17.9871215,72.4397105 17.6629533,71.9428947 C17.6491589,71.9222895 17.6353645,71.9016842 17.6215701,71.8818421 L7.26734579,57.4818158 C4.09770093,53.2256842 3.1228972,47.6553947 4.6586729,42.5819211 L7.35241121,33.6819737 C8.0957757,31.2291842 10.3228037,29.5807632 12.8962243,29.5807632 L43.2944673,29.5807632 C45.9874393,29.5807632 48.1784486,31.7626316 48.1784486,34.4436053 C48.1784486,41.6027895 42.3296262,47.4272105 35.1404486,47.4272105 L15.1600374,47.4272105 C14.2710654,47.4272105 13.5506916,48.1438158 13.5506916,49.0298421 C13.5506916,49.9151053 14.2710654,50.6324737 15.1600374,50.6324737 L22.0671963,50.6324737 L22.9822243,52.5235789 C23.3600374,53.3042895 24.2934579,53.6454211 25.0866355,53.2928421 C30.7982804,50.7614474 37.3628785,52.2618158 41.4237944,57.0239211 C45.8311028,62.1935526 45.7835888,69.9533421 41.3142056,75.0748947 C40.7310093,75.7434211 40.8022804,76.7553684 41.4728411,77.3361316 C41.7778505,77.6001842 42.1533645,77.7291579 42.5281121,77.7291579 C42.9779626,77.7291579 43.425514,77.5421842 43.7443178,77.1781579 C49.247514,70.8714211 49.3049907,61.3151579 43.8776636,54.9488947 C42.1794206,52.9570526 40.1240561,51.4292105 37.8748037,50.4035263 C45.5414206,49.1046316 51.3971402,42.4422632 51.3971402,34.4436053 C51.3971402,34.4123158 51.3925421,34.3825526 51.3925421,34.3512632 C52.9949907,35.6478684 54.9905794,36.4667368 57.1877196,36.569 C57.352486,36.5773947 57.516486,36.5812105 57.6812523,36.5812105 C60.2929907,36.5812105 62.7529907,35.6028421 64.6535514,33.7979737 C65.2421121,33.2385789 65.7433084,32.6173684 66.1732336,31.9564737 C67.3871402,34.5321316 69.8785607,36.3736316 72.826729,36.5636579 C73.0060561,36.5751053 73.1853832,36.5812105 73.3631776,36.5812105 C75.0951402,36.5812105 76.7397383,36.0309737 78.1138131,35.0083421 L78.1138131,61.3151579 C78.1138131,68.4758684 74.1885421,75.0573421 67.8691776,78.4923158 L67.8691776,78.4923158 Z M14.5055701,12.5776053 C14.5055701,8.79310526 17.5978131,5.71376316 21.3989346,5.71376316 C25.1992897,5.71376316 28.2915327,8.79310526 28.2915327,12.5776053 L28.2915327,26.3755 L14.5124673,26.3755 C14.5124673,26.3403947 14.5055701,26.3068158 14.5055701,26.2717105 L14.5055701,12.5776053 L14.5055701,12.5776053 Z M32.6436636,10.7437368 C32.6436636,6.95847368 35.7351402,3.87913158 39.5362617,3.87913158 C43.3373832,3.87913158 46.4288598,6.95847368 46.4288598,10.7437368 L46.4288598,26.5113421 C46.4288598,26.6738947 46.4188972,26.8356842 46.4074019,26.9967105 C45.4486916,26.5975789 44.3972523,26.3755 43.2944673,26.3755 L32.6482617,26.3755 C32.6474953,26.3411579 32.6436636,26.3060526 32.6436636,26.2717105 L32.6436636,10.7437368 L32.6436636,10.7437368 Z M50.7809907,13.8055263 C50.7809907,10.0202632 53.8732336,6.94168421 57.6735888,6.94168421 C61.4747103,6.94168421 64.5669533,10.0202632 64.5669533,13.8055263 L64.5669533,26.5113421 C64.5669533,28.4062632 63.8082617,30.1699211 62.4311215,31.4787368 C61.0547477,32.7860263 59.2453832,33.4591316 57.3386916,33.3675526 C53.723028,33.1981316 50.7809907,30.015 50.7809907,26.2717105 L50.7809907,13.8055263 L50.7809907,13.8055263 Z M68.5964486,16.2644211 C68.5964486,13.6513684 70.7307477,11.5252105 73.3547477,11.5252105 C75.9787477,11.5252105 78.1138131,13.6513684 78.1138131,16.2644211 L78.1138131,28.6367368 C78.1138131,29.9608158 77.5788972,31.1887368 76.6086916,32.0946053 C75.638486,33.0004737 74.3709346,33.4515 73.0351776,33.3652632 C70.5460561,33.2042368 68.5964486,31.0322895 68.5964486,28.4192368 L68.5964486,16.2644211 L68.5964486,16.2644211 Z M73.3547477,8.31994737 C70.977514,8.31994737 68.845514,9.36623684 67.3825421,11.0154211 C66.163271,6.81728947 62.2763178,3.73642105 57.6735888,3.73642105 C54.1943364,3.73642105 51.120486,5.4955 49.3003925,8.16731579 C48.1531589,3.86081579 44.2163925,0.673868421 39.5362617,0.673868421 C35.1565421,0.673868421 31.4289907,3.46626316 30.0265607,7.35302632 C28.2493832,4.45378947 25.0521495,2.5085 21.3989346,2.5085 C15.8229346,2.5085 11.2868785,7.02563158 11.2868785,12.5776053 L11.2868785,26.5159211 C7.98695327,27.1005 5.26869159,29.4624737 4.2708972,32.7570263 L1.57639252,41.6569737 C-0.251364486,47.6958421 0.909663551,54.3253947 4.66557009,59.3691053 L14.9830093,73.7187632 C15.347028,74.2766316 15.7417009,74.8238158 16.154,75.3473421 L16.201514,75.4129737 C16.2428972,75.4709737 16.2881121,75.5259211 16.3371589,75.5785789 C18.0407664,77.6856579 20.0670093,79.4477895 22.3699065,80.8275789 L22.3699065,113.918868 C22.3699065,114.804895 23.0902804,115.522263 23.9800187,115.522263 L68.6401308,115.522263 C69.5298692,115.522263 70.2494766,114.804895 70.2494766,113.918868 L70.2494766,80.8268158 C77.1098879,76.7164474 81.3325047,69.3275526 81.3325047,61.3151579 L81.3325047,16.2644211 C81.3325047,11.8838947 77.7536262,8.31994737 73.3547477,8.31994737 L73.3547477,8.31994737 Z" id="Fill-46" fill="#3E1429"></path>
            </g>
            <text id="Rock" font-family="HiraMaruProN-W4, Hiragino Maru Gothic ProN" font-size="72" font-weight="normal" letter-spacing="-2.4000001" fill-opacity="0.829030797" fill="#000000">
                <tspan x="92" y="63">Rock</tspan>
            </text>
            <text id="Paper" font-family="HiraMaruProN-W4, Hiragino Maru Gothic ProN" font-size="48" font-weight="normal" letter-spacing="-1.60000002" fill-opacity="0.829030797" fill="#000000">
                <tspan x="95" y="105">Paper</tspan>
            </text>
            <text id="Scissors" font-family="HiraMaruProN-W4, Hiragino Maru Gothic ProN" font-size="36" font-weight="normal" letter-spacing="-1.20000005" fill-opacity="0.829030797" fill="#000000">
                <tspan x="95" y="141">Scissors</tspan>
            </text>
        </g>
    </g>
</svg>