<?xml version="1.0" encoding="UTF-8"?>
<svg width="124px" height="191px" viewBox="0 0 124 191" version="1.1" xmlns="http://www.w3.org/2000/svg" xmlns:xlink="http://www.w3.org/1999/xlink">
    <!-- Generator: Sketch 40.3 (33839) - http://www.bohemiancoding.com/sketch -->
    <title>paper</title>
    <desc>Created with Sketch.</desc>
    <defs></defs>
    <g id="Page-1" stroke="none" stroke-width="1" fill="none" fill-rule="evenodd">
        <g id="paper">
            <path d="M121.646,74.571 L121.646,40.332 C121.646,35.742 117.925,32.022 113.335,32.022 C108.746,32.022 105.026,35.742 105.026,40.332 L105.026,74.571 L103.97,74.571 L103.97,23.879 C103.97,17.751 99.003,12.784 92.875,12.784 C86.748,12.784 81.781,17.751 81.781,23.879 L81.781,74.571 L80.303,74.571 L80.303,13.195 C80.303,7.067 75.335,2.1 69.208,2.1 C63.081,2.1 58.113,7.067 58.113,13.195 L58.113,74.571 L56.636,74.571 L56.636,20.468 C56.636,14.341 51.668,9.373 45.541,9.373 C39.414,9.373 34.446,14.341 34.446,20.468 L34.446,93.458 L32.483,91.495 C25.019,84.031 12.917,84.031 5.454,91.495 C2.145,94.804 2.145,100.168 5.454,103.477 L43.398,141.421 C45.276,143.299 47.431,144.73 49.73,145.718 C53.472,147.601 57.696,148.668 62.171,148.668 L93.921,148.668 C109.234,148.668 121.647,136.255 121.647,120.942 L121.647,74.571 L121.646,74.571" id="Fill-15" fill="#EBC3B7"></path>
            <path d="M93.921,148.668 L73.175,148.668 C73.338,148.479 73.503,148.292 73.661,148.095 C77.516,143.281 78.813,137.053 77.604,131.269 C76.973,134.286 75.671,137.184 73.661,139.694 C67.664,147.181 57.801,149.188 49.73,145.718 C49.454,145.6 49.18,145.472 48.908,145.34 L48.908,188.81 L107.185,188.81 L107.185,145.294 C103.245,147.444 98.727,148.668 93.921,148.668" id="Fill-16" fill="#E0998E"></path>
            <path d="M5.454,99.896 L5.454,99.896 C12.917,92.432 25.019,92.432 32.483,99.896 L49.5,116.912 C57.544,113.334 67.436,115.239 73.505,122.641 C75.6,125.196 76.956,128.17 77.604,131.269 C78.832,125.401 77.472,119.077 73.505,114.24 C67.436,106.838 57.544,104.933 49.5,108.511 L32.483,91.495 C25.019,84.031 12.917,84.031 5.454,91.495 C2.691,94.258 2.244,98.451 4.095,101.687 C4.461,101.047 4.908,100.441 5.454,99.896" id="Fill-17" fill="#F2DFD6"></path>
            <path d="M45.541,9.373 L45.541,9.373 C39.414,9.373 34.446,14.341 34.446,20.468 L34.446,28.869 C34.446,22.742 39.414,17.774 45.541,17.774 C51.668,17.774 56.636,22.742 56.636,28.869 L56.636,20.468 C56.636,14.341 51.668,9.373 45.541,9.373" id="Fill-18" fill="#F2DFD6"></path>
            <path d="M113.335,32.022 C108.746,32.022 105.026,35.742 105.026,40.332 L105.026,48.732 C105.026,44.143 108.746,40.423 113.335,40.423 C117.925,40.423 121.646,44.143 121.646,48.732 L121.646,40.332 C121.646,35.742 117.925,32.022 113.335,32.022" id="Fill-19" fill="#F2DFD6"></path>
            <path d="M69.208,2.1 L69.208,2.1 C63.081,2.1 58.113,7.067 58.113,13.195 L58.113,21.596 C58.113,15.468 63.081,10.501 69.208,10.501 C75.335,10.501 80.303,15.468 80.303,21.596 L80.303,13.195 C80.303,7.067 75.335,2.1 69.208,2.1" id="Fill-20" fill="#F2DFD6"></path>
            <path d="M92.875,12.784 L92.875,12.784 C86.748,12.784 81.781,17.751 81.781,23.879 L81.781,32.28 C81.781,26.152 86.748,21.185 92.875,21.185 C99.003,21.185 103.97,26.152 103.97,32.28 L103.97,23.879 C103.97,17.751 99.003,12.784 92.875,12.784" id="Fill-21" fill="#F2DFD6"></path>
            <path d="M106.179,143.45 C105.505,143.818 105.085,144.525 105.085,145.294 L105.085,186.709 L51.009,186.709 L51.009,145.294 C51.009,144.526 50.589,143.819 49.914,143.451 C48.094,142.458 46.393,141.241 44.86,139.835 C44.763,139.746 44.658,139.671 44.55,139.604 L6.939,101.992 C5.735,100.789 5.072,99.188 5.072,97.486 C5.072,95.784 5.735,94.184 6.939,92.98 C13.573,86.347 24.364,86.347 30.998,92.98 L32.957,94.939 L32.965,94.947 L48.014,109.997 C48.628,110.612 49.559,110.784 50.353,110.431 C57.824,107.108 66.676,109.223 71.881,115.571 C77.277,122.153 77.336,131.745 72.021,138.381 C71.296,139.286 71.442,140.608 72.348,141.333 C73.253,142.059 74.574,141.912 75.3,141.007 C81.847,132.832 81.775,121.014 75.129,112.908 C69.04,105.481 58.889,102.77 50,106.042 L36.546,92.588 L36.546,20.468 C36.546,15.509 40.582,11.474 45.541,11.474 C50.501,11.474 54.536,15.509 54.536,20.468 L54.536,74.571 C54.536,75.731 55.476,76.671 56.636,76.671 L58.113,76.671 C59.273,76.671 60.213,75.731 60.213,74.571 L60.213,13.195 C60.213,8.235 64.249,4.2 69.208,4.2 C74.168,4.2 78.203,8.235 78.203,13.195 L78.203,74.571 C78.203,75.731 79.143,76.671 80.303,76.671 L81.781,76.671 C82.941,76.671 83.881,75.731 83.881,74.571 L83.881,23.879 C83.881,18.919 87.916,14.884 92.875,14.884 C97.835,14.884 101.87,18.919 101.87,23.879 L101.87,74.571 C101.87,75.731 102.81,76.671 103.97,76.671 L105.026,76.671 C106.186,76.671 107.126,75.731 107.126,74.571 L107.126,40.332 C107.126,36.908 109.912,34.122 113.335,34.122 C116.759,34.122 119.545,36.908 119.545,40.332 L119.546,120.942 C119.546,130.325 114.424,138.95 106.179,143.45 L106.179,143.45 Z M123.746,40.332 C123.746,34.591 119.076,29.922 113.335,29.922 C110.512,29.922 107.948,31.051 106.07,32.883 L106.07,23.879 C106.07,16.603 100.151,10.684 92.875,10.684 C88.614,10.684 84.817,12.715 82.403,15.86 L82.403,13.195 C82.403,5.919 76.484,0 69.208,0 C62.174,0 56.408,5.532 56.032,12.475 C53.62,9.315 49.814,7.273 45.541,7.273 C38.265,7.273 32.346,13.192 32.346,20.468 L32.346,88.546 C24.022,81.772 11.719,82.26 3.969,90.01 C1.972,92.007 0.872,94.662 0.872,97.486 C0.872,100.31 1.972,102.965 3.969,104.962 L41.913,142.906 C42.057,143.05 42.221,143.16 42.391,143.254 C43.764,144.471 45.24,145.566 46.808,146.51 L46.808,188.81 C46.808,189.97 47.749,190.91 48.908,190.91 L107.186,190.91 C108.345,190.91 109.286,189.97 109.286,188.81 L109.286,146.51 C118.237,141.124 123.747,131.441 123.747,120.942 L123.746,40.332 L123.746,40.332 Z" id="Fill-22" fill="#3E1429"></path>
        </g>
    </g>
</svg>