<?xml version="1.0" encoding="UTF-8"?>
<svg width="107px" height="152px" viewBox="0 0 107 152" version="1.1" xmlns="http://www.w3.org/2000/svg" xmlns:xlink="http://www.w3.org/1999/xlink">
    <!-- Generator: Sketch 40.3 (33839) - http://www.bohemiancoding.com/sketch -->
    <title>rock</title>
    <desc>Created with Sketch.</desc>
    <defs></defs>
    <g id="Page-1" stroke="none" stroke-width="1" fill="none" fill-rule="evenodd">
        <g id="rock">
            <path d="M95.719,13.002 C91.13,13.002 87.409,16.723 87.409,21.312 L87.409,33.972 L86.353,33.972 L86.353,18.09 C86.353,11.962 81.385,6.995 75.257,6.995 C69.13,6.995 64.163,11.962 64.163,18.09 L64.163,33.972 L62.685,33.972 L62.685,14.078 C62.685,7.95 57.718,2.983 51.59,2.983 C45.463,2.983 40.495,7.95 40.495,14.078 L40.495,33.972 L39.018,33.972 L39.018,16.481 C39.018,10.354 34.05,5.387 27.923,5.387 C21.795,5.387 16.828,10.354 16.828,16.481 L16.828,36.661 C12.569,36.661 8.813,39.452 7.583,43.529 L4.068,55.191 C1.862,62.507 3.245,70.434 7.796,76.572 L21.285,95.412 C21.746,96.122 22.238,96.809 22.76,97.472 L22.849,97.596 C22.86,97.607 22.872,97.618 22.883,97.629 C27.964,103.99 35.78,108.069 44.553,108.069 L76.304,108.069 C91.616,108.069 104.029,95.656 104.029,80.344 L104.029,21.312 C104.029,16.723 100.309,13.002 95.719,13.002" id="Fill-35" fill="#EBC3B7"></path>
            <path d="M27.923,5.387 L27.923,5.387 C21.795,5.387 16.828,10.354 16.828,16.481 L16.828,24.882 C16.828,18.755 21.795,13.788 27.923,13.788 C34.05,13.788 39.018,18.755 39.018,24.882 L39.018,16.481 C39.018,10.354 34.05,5.387 27.923,5.387" id="Fill-36" fill="#F2DFD6"></path>
            <path d="M51.59,2.983 C45.463,2.983 40.495,7.95 40.495,14.078 L40.495,22.479 C40.495,16.351 45.463,11.384 51.59,11.384 C57.718,11.384 62.685,16.351 62.685,22.479 L62.685,14.078 C62.685,7.95 57.718,2.983 51.59,2.983" id="Fill-37" fill="#F2DFD6"></path>
            <path d="M75.257,6.995 C69.13,6.995 64.163,11.962 64.163,18.09 L64.163,26.491 C64.163,20.363 69.13,15.396 75.257,15.396 C81.385,15.396 86.353,20.363 86.353,26.491 L86.353,18.09 C86.353,11.962 81.385,6.995 75.257,6.995" id="Fill-38" fill="#F2DFD6"></path>
            <path d="M35.392,66.736 C34.519,66.967 33.719,67.209 33.002,67.467 C32.626,67.608 32.25,67.749 31.881,67.913 L31.881,76.313 C39.824,72.781 49.567,74.593 55.654,81.762 C57.879,84.384 59.307,87.458 59.977,90.665 C61.227,84.691 59.802,78.247 55.654,73.361 C50.439,67.219 42.543,65.022 35.392,66.736" id="Fill-39" fill="#F2DFD6"></path>
            <path d="M4.068,63.592 L7.583,51.93 C8.813,47.852 12.569,45.062 16.828,45.062 L56.494,45.062 C59.989,45.062 62.988,47.179 64.283,50.199 C64.726,48.585 64.967,46.888 64.967,45.133 C64.967,40.454 61.173,36.661 56.494,36.661 L16.828,36.661 C12.569,36.661 8.813,39.452 7.583,43.529 L4.068,55.191 C2.961,58.863 2.759,62.689 3.407,66.367 C3.572,65.435 3.792,64.509 4.068,63.592" id="Fill-40" fill="#F2DFD6"></path>
            <path d="M55.594,108.069 C59.778,103.177 61.231,96.696 59.972,90.687 C59.283,93.963 57.801,97.098 55.495,99.751 C47.686,108.737 31.121,105.868 22.849,97.596 L21.031,95.057 C23.556,99.097 27.098,102.432 31.291,104.724 L31.291,149.273 L89.567,149.273 L89.567,104.695 C85.627,106.846 81.108,108.069 76.304,108.069 L55.594,108.069" id="Fill-41" fill="#E0998E"></path>
            <path d="M74.721,54.222 C81.092,54.522 86.353,49.445 86.353,43.14 L86.353,34.739 C86.353,41.044 81.092,46.121 74.721,45.821 C68.754,45.54 64.163,40.399 64.163,34.425 L64.163,42.826 C64.163,48.8 68.754,53.941 74.721,54.222" id="Fill-42" fill="#E0998E"></path>
            <path d="M31.881,67.913 C38.917,64.783 47.361,65.857 53.43,71.125 C60.216,68.191 64.967,61.439 64.967,53.576 C64.967,52.385 64.719,51.253 64.275,50.225 C62.046,58.308 54.646,64.246 45.854,64.246 L18.592,64.246 L21.147,67.913 L31.881,67.913" id="Fill-43" fill="#E0998E"></path>
            <path d="M95.166,45.815 C90.75,45.53 87.409,41.665 87.409,37.239 L87.409,45.64 C87.409,50.066 90.75,53.931 95.166,54.216 C100.006,54.53 104.029,50.697 104.029,45.925 L104.029,37.524 C104.029,42.296 100.006,46.129 95.166,45.815" id="Fill-44" fill="#E0998E"></path>
            <path d="M95.719,13.002 L95.719,13.002 C91.13,13.002 87.409,16.723 87.409,21.312 L87.409,29.713 C87.409,25.124 91.13,21.403 95.719,21.403 C100.309,21.403 104.029,25.124 104.029,29.713 L104.029,21.312 C104.029,16.723 100.309,13.002 95.719,13.002" id="Fill-45" fill="#F2DFD6"></path>
            <path d="M88.561,102.852 C87.887,103.22 87.467,103.927 87.467,104.695 L87.467,147.173 L33.391,147.173 L33.391,104.695 C33.391,103.927 32.971,103.22 32.297,102.852 C29.293,101.212 26.678,99.014 24.525,96.318 C24.507,96.297 24.49,96.276 24.472,96.255 L24.468,96.25 C24.449,96.223 24.43,96.197 24.41,96.171 C23.929,95.561 23.471,94.921 23.048,94.27 C23.03,94.243 23.012,94.216 22.994,94.19 L9.483,75.321 C5.347,69.744 4.075,62.445 6.079,55.797 L9.594,44.135 C10.564,40.921 13.47,38.761 16.828,38.761 L56.494,38.761 C60.008,38.761 62.867,41.62 62.867,45.133 C62.867,54.514 55.235,62.146 45.854,62.146 L19.782,62.146 C18.622,62.146 17.682,63.085 17.682,64.246 C17.682,65.406 18.622,66.346 19.782,66.346 L28.795,66.346 L29.989,68.824 C30.482,69.847 31.7,70.294 32.735,69.832 C40.188,66.515 48.754,68.481 54.053,74.721 C59.804,81.495 59.742,91.663 53.91,98.374 C53.149,99.25 53.242,100.576 54.117,101.337 C54.515,101.683 55.005,101.852 55.494,101.852 C56.081,101.852 56.665,101.607 57.081,101.13 C64.262,92.866 64.337,80.344 57.255,72.002 C55.039,69.392 52.357,67.39 49.422,66.046 C59.426,64.344 67.067,55.614 67.067,45.133 C67.067,45.092 67.061,45.053 67.061,45.012 C69.152,46.711 71.756,47.784 74.623,47.918 C74.838,47.929 75.052,47.934 75.267,47.934 C78.675,47.934 81.885,46.652 84.365,44.287 C85.133,43.554 85.787,42.74 86.348,41.874 C87.932,45.249 91.183,47.662 95.03,47.911 C95.264,47.926 95.498,47.934 95.73,47.934 C97.99,47.934 100.136,47.213 101.929,45.873 L101.929,80.344 C101.929,89.727 96.807,98.351 88.561,102.852 L88.561,102.852 Z M18.928,16.481 C18.928,11.522 22.963,7.487 27.923,7.487 C32.882,7.487 36.917,11.522 36.917,16.481 L36.917,34.561 L18.937,34.561 C18.937,34.515 18.928,34.471 18.928,34.425 L18.928,16.481 L18.928,16.481 Z M42.596,14.078 C42.596,9.118 46.63,5.083 51.59,5.083 C56.55,5.083 60.584,9.118 60.584,14.078 L60.584,34.739 C60.584,34.952 60.571,35.164 60.556,35.375 C59.305,34.852 57.933,34.561 56.494,34.561 L42.602,34.561 C42.601,34.516 42.596,34.47 42.596,34.425 L42.596,14.078 L42.596,14.078 Z M66.263,18.09 C66.263,13.13 70.298,9.096 75.257,9.096 C80.217,9.096 84.252,13.13 84.252,18.09 L84.252,34.739 C84.252,37.222 83.262,39.533 81.465,41.248 C79.669,42.961 77.308,43.843 74.82,43.723 C70.102,43.501 66.263,39.33 66.263,34.425 L66.263,18.09 L66.263,18.09 Z M89.51,21.312 C89.51,17.888 92.295,15.102 95.719,15.102 C99.143,15.102 101.929,17.888 101.929,21.312 L101.929,37.524 C101.929,39.259 101.231,40.868 99.965,42.055 C98.699,43.242 97.045,43.833 95.302,43.72 C92.054,43.509 89.51,40.663 89.51,37.239 L89.51,21.312 L89.51,21.312 Z M95.719,10.902 C92.617,10.902 89.835,12.273 87.926,14.434 C86.335,8.933 81.263,4.896 75.257,4.896 C70.717,4.896 66.706,7.201 64.331,10.702 C62.834,5.059 57.697,0.883 51.59,0.883 C45.875,0.883 41.011,4.542 39.181,9.635 C36.862,5.836 32.69,3.287 27.923,3.287 C20.647,3.287 14.728,9.206 14.728,16.481 L14.728,34.745 C10.422,35.511 6.875,38.606 5.573,42.923 L2.057,54.585 C-0.328,62.498 1.187,71.185 6.088,77.794 L19.551,96.597 C20.026,97.328 20.541,98.045 21.079,98.731 L21.141,98.817 C21.195,98.893 21.254,98.965 21.318,99.034 C23.541,101.795 26.185,104.104 29.19,105.912 L29.19,149.273 C29.19,150.434 30.13,151.374 31.291,151.374 L89.567,151.374 C90.728,151.374 91.667,150.434 91.667,149.273 L91.667,105.911 C100.619,100.525 106.129,90.843 106.129,80.344 L106.129,21.312 C106.129,15.572 101.459,10.902 95.719,10.902 L95.719,10.902 Z" id="Fill-46" fill="#3E1429"></path>
        </g>
    </g>
</svg>