<?xml version="1.0" encoding="UTF-8"?>
<svg width="107px" height="191px" viewBox="0 0 107 191" version="1.1" xmlns="http://www.w3.org/2000/svg" xmlns:xlink="http://www.w3.org/1999/xlink">
    <!-- Generator: Sketch 40.3 (33839) - http://www.bohemiancoding.com/sketch -->
    <title>scisor</title>
    <desc>Created with Sketch.</desc>
    <defs></defs>
    <g id="Page-1" stroke="none" stroke-width="1" fill="none" fill-rule="evenodd">
        <g id="scisor">
            <path d="M95.719,53.402 C91.13,53.402 87.409,57.123 87.409,61.712 L87.409,74.372 L86.353,74.372 L86.353,58.49 C86.353,52.362 81.385,47.395 75.257,47.395 C69.13,47.395 64.163,52.362 64.163,58.49 L64.163,74.372 L62.146,74.372 L64.208,13.811 C64.417,7.687 59.622,2.554 53.498,2.345 C47.374,2.137 42.24,6.932 42.032,13.056 L39.943,74.372 L39.263,74.372 C39.238,74.058 39.21,73.744 39.158,73.427 L30.359,19.654 C29.37,13.607 23.666,9.507 17.619,10.497 C11.572,11.486 7.472,17.19 8.461,23.237 L16.828,74.373 L16.828,76.838 C12.569,76.838 8.813,79.629 7.583,83.707 L4.068,95.369 C1.862,102.684 3.245,110.612 7.796,116.749 L20.404,134.359 C25.162,142.78 34.191,148.469 44.553,148.469 L76.304,148.469 C91.616,148.469 104.029,136.056 104.029,120.744 L104.029,61.712 C104.029,57.123 100.309,53.402 95.719,53.402" id="Fill-59" fill="#EBC3B7"></path>
            <path d="M95.719,53.402 C91.13,53.402 87.409,57.123 87.409,61.712 L87.409,70.113 C87.409,65.523 91.13,61.803 95.719,61.803 C100.309,61.803 104.029,65.523 104.029,70.113 L104.029,61.712 C104.029,57.123 100.309,53.402 95.719,53.402" id="Fill-60" fill="#F2DFD6"></path>
            <path d="M75.257,47.395 C69.13,47.395 64.163,52.362 64.163,58.49 L64.163,66.891 C64.163,60.763 69.13,55.796 75.257,55.796 C81.385,55.796 86.353,60.763 86.353,66.891 L86.353,58.49 C86.353,52.362 81.385,47.395 75.257,47.395" id="Fill-61" fill="#F2DFD6"></path>
            <path d="M9.854,31.638 C8.864,25.591 12.964,19.887 19.012,18.897 C24.94,17.928 30.527,21.854 31.677,27.706 L30.359,19.654 C29.37,13.607 23.666,9.507 17.619,10.497 C11.572,11.486 7.472,17.19 8.461,23.238 L9.854,31.638" id="Fill-62" fill="#F2DFD6"></path>
            <path d="M53.498,2.345 C47.374,2.137 42.24,6.932 42.032,13.056 L41.76,21.028 C42.189,15.112 47.211,10.542 53.19,10.746 C59.313,10.955 64.109,16.088 63.9,22.212 L64.208,13.811 C64.417,7.687 59.622,2.554 53.498,2.345" id="Fill-63" fill="#F2DFD6"></path>
            <path d="M35.392,106.914 C34.519,107.145 33.719,107.387 33.002,107.645 C32.626,107.786 32.25,107.926 31.881,108.09 L31.881,116.491 C39.824,112.958 49.567,114.771 55.654,121.94 C57.879,124.562 59.307,127.636 59.977,130.843 C61.227,124.869 59.802,118.425 55.654,113.539 C50.439,107.397 42.543,105.2 35.392,106.914" id="Fill-64" fill="#F2DFD6"></path>
            <path d="M4.068,103.77 L7.583,92.107 C8.813,88.03 12.569,85.239 16.828,85.239 L56.494,85.239 C59.989,85.239 62.988,87.356 64.283,90.376 C64.726,88.763 64.967,87.065 64.967,85.311 C64.967,80.632 61.173,76.838 56.494,76.838 L16.828,76.838 C12.569,76.838 8.813,79.629 7.583,83.707 L4.068,95.369 C2.961,99.041 2.759,102.867 3.407,106.544 C3.572,105.613 3.792,104.686 4.068,103.77" id="Fill-65" fill="#F2DFD6"></path>
            <path d="M55.364,148.469 C55.407,148.421 55.453,148.378 55.495,148.33 C59.754,143.429 61.241,136.896 59.977,130.843 C59.29,134.126 57.806,137.27 55.495,139.929 C47.686,148.915 31.121,146.046 22.849,137.774 L20.404,134.359 C23.029,139.004 26.958,142.811 31.688,145.297 C31.557,145.228 31.421,145.167 31.291,145.096 L31.291,188.572 L89.567,188.572 L89.567,145.095 C85.627,147.246 81.108,148.469 76.304,148.469 L55.364,148.469" id="Fill-66" fill="#E0998E"></path>
            <path d="M95.166,86.215 C90.75,85.93 87.409,82.065 87.409,77.639 L87.409,86.04 C87.409,90.466 90.75,94.331 95.166,94.616 C100.006,94.93 104.029,91.097 104.029,86.325 L104.029,77.924 C104.029,82.696 100.006,86.529 95.166,86.215" id="Fill-67" fill="#E0998E"></path>
            <path d="M74.721,94.622 C81.093,94.922 86.353,89.845 86.353,83.54 L86.353,75.139 C86.353,81.444 81.093,86.521 74.721,86.221 C68.754,85.94 64.163,80.799 64.163,74.825 L64.163,83.226 C64.163,89.2 68.754,94.341 74.721,94.622" id="Fill-68" fill="#E0998E"></path>
            <path d="M31.881,108.09 C38.905,104.966 47.333,106.03 53.399,111.274 C60.202,108.348 64.967,101.587 64.967,93.712 C64.967,92.527 64.722,91.4 64.283,90.376 C62.063,98.473 54.656,104.423 45.854,104.423 L18.592,104.423 L21.147,108.09 L31.881,108.09" id="Fill-69" fill="#E0998E"></path>
            <path d="M101.929,77.924 C101.929,79.659 101.231,81.268 99.965,82.455 C98.7,83.642 97.046,84.233 95.302,84.12 C92.054,83.909 89.51,81.063 89.51,77.639 L89.51,61.712 C89.51,58.288 92.295,55.502 95.719,55.502 C99.143,55.502 101.929,58.288 101.929,61.712 L101.929,77.924 L101.929,77.924 Z M88.561,143.251 C87.887,143.62 87.467,144.327 87.467,145.095 L87.467,186.472 L33.391,186.472 L33.391,145.095 C33.391,144.327 32.971,143.62 32.297,143.252 C28.083,140.952 24.603,137.52 22.232,133.326 C22.196,133.26 22.155,133.197 22.112,133.136 L9.483,115.498 C5.347,109.92 4.075,102.623 6.079,95.975 L9.594,84.313 C10.564,81.098 13.47,78.938 16.828,78.938 L56.494,78.938 C60.008,78.938 62.867,81.797 62.867,85.311 C62.867,94.692 55.235,102.323 45.854,102.323 L19.782,102.323 C18.622,102.323 17.682,103.264 17.682,104.424 C17.682,105.583 18.622,106.524 19.782,106.524 L28.796,106.524 L29.989,109.002 C30.482,110.024 31.698,110.472 32.735,110.009 C40.188,106.695 48.755,108.659 54.053,114.898 C59.804,121.672 59.742,131.841 53.91,138.551 C53.149,139.427 53.242,140.754 54.117,141.515 C54.515,141.86 55.006,142.029 55.494,142.029 C56.081,142.029 56.665,141.785 57.081,141.307 C64.262,133.043 64.337,120.521 57.255,112.18 C55.039,109.569 52.358,107.568 49.423,106.224 C59.394,104.528 67.013,95.848 67.063,85.413 C69.154,87.111 71.757,88.184 74.623,88.318 C74.838,88.329 75.053,88.333 75.267,88.333 C78.676,88.333 81.885,87.052 84.365,84.687 C85.133,83.954 85.787,83.14 86.348,82.274 C87.933,85.649 91.183,88.062 95.03,88.311 C95.264,88.326 95.498,88.334 95.73,88.334 C97.99,88.334 100.136,87.613 101.929,86.272 L101.929,120.744 C101.929,130.126 96.807,138.751 88.561,143.251 L88.561,143.251 Z M10.534,22.898 C10.146,20.527 10.705,18.147 12.106,16.197 C13.509,14.246 15.587,12.958 17.958,12.57 C20.328,12.182 22.709,12.74 24.66,14.143 C26.611,15.545 27.898,17.623 28.287,19.994 L37.085,73.766 C37.127,74.023 37.149,74.28 37.169,74.536 C37.174,74.606 37.192,74.671 37.205,74.738 L18.928,74.738 L18.928,74.373 C18.928,74.259 18.919,74.146 18.9,74.033 L10.534,22.898 L10.534,22.898 Z M44.13,13.127 C44.299,8.17 48.48,4.267 53.426,4.444 C58.383,4.613 62.278,8.783 62.109,13.74 L60.047,74.301 C60.033,74.721 60.146,75.131 60.365,75.482 C59.165,75.007 57.861,74.738 56.494,74.738 L42.003,74.738 C42.02,74.641 42.039,74.545 42.042,74.444 L44.13,13.127 L44.13,13.127 Z M66.263,58.49 C66.263,53.53 70.298,49.496 75.257,49.496 C80.217,49.496 84.252,53.53 84.252,58.49 L84.252,75.139 C84.252,77.622 83.262,79.933 81.465,81.648 C79.669,83.361 77.317,84.24 74.82,84.123 C70.102,83.901 66.263,79.73 66.263,74.826 L66.263,58.49 L66.263,58.49 Z M95.719,51.302 C92.624,51.302 89.839,52.66 87.931,54.812 C86.335,49.32 81.257,45.295 75.257,45.295 C71.162,45.295 67.496,47.171 65.073,50.109 L66.307,13.882 C66.555,6.611 60.841,0.494 53.569,0.246 C46.287,-0.01 40.18,5.714 39.933,12.984 L38.462,56.166 L32.432,19.315 C31.863,15.837 29.974,12.789 27.111,10.731 C24.25,8.675 20.757,7.857 17.279,8.424 C13.801,8.994 10.753,10.883 8.696,13.745 C6.639,16.607 5.819,20.099 6.388,23.577 L14.728,74.543 L14.728,74.923 C10.422,75.689 6.875,78.784 5.573,83.101 L2.057,94.762 C-0.328,102.674 1.187,111.362 6.088,117.972 L18.632,135.492 C21.178,139.957 24.81,143.675 29.19,146.312 L29.19,188.572 C29.19,189.732 30.13,190.672 31.291,190.672 L89.567,190.672 C90.728,190.672 91.667,189.732 91.667,188.572 L91.667,146.311 C100.62,140.925 106.129,131.243 106.129,120.744 L106.129,61.712 C106.129,55.972 101.459,51.302 95.719,51.302 L95.719,51.302 Z" id="Fill-70" fill="#3E1429"></path>
        </g>
    </g>
</svg>